# xmcd
#
# Track frame offsets:
#        238
#        27475
#        47050
#        63752
#        91196
#        110524
#        132829
#        151291
#        169241
#
# Disc length: 2557 seconds
#
# Revision: 3
# Processed by: cddbd v1.5.1PL0 Copyright (c) Steve Scherf et al.
# Submitted via: ExactAudioCopy v0.95a3
#
DISCID=6f09fa09
DTITLE=Michael Jackson - Thriller
DYEAR=1982
DGENRE=Pop
TTITLE0=Wanna Be Startin' Somethin'
TTITLE1=Baby Be Mine
TTITLE2=The Girl Is Mine (With Paul McCartney)
TTITLE3=Thriller
TTITLE4=Beat It
TTITLE5=Billie Jean
TTITLE6=Human Nature
TTITLE7=P. Y. T. (Pretty Young Thing)
TTITLE8=The Lady In My Life
EXTD=YEAR: 1982
EXTT0=
EXTT1=
EXTT2=
EXTT3=
EXTT4=
EXTT5=
EXTT6=
EXTT7=
EXTT8=
PLAYORDER=
